Coordinates
version=1
nRows=12
nColumns=32
inDegrees=yes

Units are S.I. units (second, meters, Newtons, ...)
If the header above contains a line with 'inDegrees', this indicates whether rotational values are in degrees (yes) or radians (no).

endheader
time	pelvis_tilt	pelvis_list	pelvis_rotation	pelvis_tx	pelvis_ty	pelvis_tz	hip_flexion_r	hip_adduction_r	hip_rotation_r	knee_angle_r	knee_adduction_r	med_cond_adduction_r	lat_cond_adduction_r	patella_r_constrained_knee_angle	ankle_angle_r	subtalar_angle_r	mtp_angle_r	hip_flexion_l	hip_adduction_l	hip_rotation_l	knee_angle_l	knee_adduction_l	med_cond_adduction_l	lat_cond_adduction_l	patella_l_constrained_knee_angle	ankle_angle_l	subtalar_angle_l	mtp_angle_l	lumbar_extension	lumbar_bending	lumbar_rotation
      0.00500000	      0.67684144	      4.69247641	     -3.06921473	      0.22592668	      0.90661935	     -1.19638174	     -0.09981938	    -27.89361058	    -31.33479937	     -6.28838185	      4.16507995	     -0.00000000	     -0.00000000	     -0.10975297	     -8.57270842	      9.74729643	      0.00000000	     -0.96655498	    -14.94372705	    -37.54079069	     -4.96137839	      1.09683278	     -0.00000000	     -0.00000000	     -0.08659239	     -8.38654744	     17.00019146	     -0.00000000	    -15.10982209	     -3.58169385	     -2.24827540
      0.01000000	      0.64134897	      4.80736156	     -3.10468367	      0.22595987	      0.90652739	     -1.19628415	      0.05170682	    -28.07465051	    -31.38960764	     -6.48844614	      4.14319698	     -0.00000000	     -0.00000000	     -0.11324475	     -8.43743878	     10.01346114	     -0.00000000	     -0.94924902	    -14.77585487	    -37.55363629	     -4.87619790	      1.03422722	     -0.00000000	     -0.00000000	     -0.08510571	     -8.46552629	     16.97204924	      0.00000000	    -15.05450184	     -3.63464572	     -2.06096718
      0.01500000	      0.64405848	      4.77634375	     -3.06349110	      0.22597190	      0.90655415	     -1.19638544	     -0.03422837	    -28.02771424	    -31.37851028	     -6.37802004	      4.19859975	     -0.00000000	     -0.00000000	     -0.11131745	     -8.54373548	      9.80740435	      0.00000000	     -0.93111202	    -14.82269401	    -37.53100016	     -4.90966086	      1.05114982	      0.00000000	      0.00000000	     -0.08568975	     -8.44082261	     16.99387020	     -0.00000000	    -15.05990315	     -3.60473505	     -2.14585557
      0.02000000	      0.64445372	      4.70764979	     -3.12155403	      0.22596890	      0.90655655	     -1.19617434	      0.07844530	    -27.93906797	    -31.42551645	     -6.51016008	      4.07719097	     -0.00000000	     -0.00000000	     -0.11362373	     -8.42654530	     10.13609851	      0.00000000	     -0.98257094	    -14.92654737	    -37.56118477	     -4.89686965	      1.11004651	      0.00000000	      0.00000000	     -0.08546650	     -8.45186845	     16.94493886	     -0.00000000	    -15.05707685	     -3.48129523	     -1.93775253
      0.02500000	      0.63710933	      4.73972278	     -3.10539668	      0.22597742	      0.90654837	     -1.19620698	      0.05746332	    -27.96803832	    -31.40100868	     -6.46887698	      4.09567520	      0.00000000	      0.00000000	     -0.11290320	     -8.42613048	     10.03502809	      0.00000000	     -0.95826957	    -14.87516185	    -37.55092303	     -4.88668750	      1.07063108	     -0.00000000	     -0.00000000	     -0.08528879	     -8.47659557	     16.96109209	     -0.00000000	    -15.04480535	     -3.54649903	     -2.01357069
      0.03000000	      0.62281293	      4.79416662	     -3.11951956	      0.22600068	      0.90650633	     -1.19618227	      0.12042693	    -28.06585989	    -31.43505623	     -6.56474292	      4.10506125	     -0.00000000	     -0.00000000	     -0.11457638	     -8.37484642	     10.16690454	     -0.00000000	     -0.96379057	    -14.79377573	    -37.54150091	     -4.83424612	      1.06336265	      0.00000000	     -0.00000000	     -0.08437351	     -8.50703714	     16.92699664	      0.00000000	    -15.01595785	     -3.56540908	     -1.92216258
      0.03500000	      0.62938049	      4.70168770	     -3.11034456	      0.22605289	      0.90652981	     -1.19615130	      0.06904120	    -27.92555353	    -31.43721259	     -6.48672731	      4.08520997	     -0.00000000	     -0.00000000	     -0.11321475	     -8.41976964	     10.10382024	     -0.00000000	     -0.97803340	    -14.94208260	    -37.55479364	     -4.89166912	      1.13139156	     -0.00000000	     -0.00000000	     -0.08537573	     -8.44776596	     16.93498732	     -0.00000000	    -15.01675745	     -3.47078928	     -1.93988298
      0.04000000	      0.61198468	      4.74347424	     -3.07589054	      0.22602653	      0.90652634	     -1.19623683	      0.05510772	    -27.96091685	    -31.42269772	     -6.43502292	      4.09154932	     -0.00000000	     -0.00000000	     -0.11231234	     -8.44967788	     10.01329780	     -0.00000000	     -0.93035755	    -14.86786357	    -37.52757693	     -4.87713873	      1.07711473	     -0.00000000	     -0.00000000	     -0.08512213	     -8.45791553	     16.95343795	      0.00000000	    -15.00125345	     -3.53963506	     -2.01990917
      0.04500000	      0.58349290	      4.77933257	     -3.04778522	      0.22607843	      0.90646583	     -1.19631159	      0.02498102	    -27.99699017	    -31.36399757	     -6.36649845	      4.13965443	     -0.00000000	     -0.00000000	     -0.11111636	     -8.55343485	      9.81369075	     -0.00000000	     -0.87951056	    -14.83364108	    -37.51032942	     -4.90313290	      1.06913797	     -0.00000000	     -0.00000000	     -0.08557581	     -8.45487883	     17.00390907	      0.00000000	    -14.95172008	     -3.67357950	     -2.22474493
      0.05000000	      0.58709975	      4.81916138	     -3.06808855	      0.22610580	      0.90646763	     -1.19628071	      0.04914287	    -28.07447382	    -31.38123717	     -6.43274778	      4.17506106	      0.00000000	      0.00000000	     -0.11227263	     -8.44849925	      9.86300185	     -0.00000000	     -0.90896771	    -14.76994744	    -37.51416537	     -4.84739893	      1.07489999	      0.00000000	      0.00000000	     -0.08460307	     -8.47972698	     16.93815636	     -0.00000000	    -14.95368726	     -3.67724932	     -2.15392068
      0.05500000	      0.58473594	      4.75402383	     -3.09055081	      0.22611337	      0.90646090	     -1.19616796	      0.12159046	    -28.00653511	    -31.45743869	     -6.53518304	      4.11049285	      0.00000000	      0.00000000	     -0.11406046	     -8.38625657	     10.10696220	     -0.00000000	     -0.93395837	    -14.86268147	    -37.52892969	     -4.84756811	      1.10932628	      0.00000000	      0.00000000	     -0.08460602	     -8.46897622	     16.92655200	     -0.00000000	    -14.93987530	     -3.51550377	     -1.93302678
      0.06000000	      0.56157403	      4.88033001	     -3.05379922	      0.22616106	      0.90639369	     -1.19630064	      0.10793089	    -28.19117380	    -31.45763937	     -6.54187294	      4.20459509	      0.00000000	      0.00000000	     -0.11417722	     -8.39261776	      9.98868066	      0.00000000	     -0.89210850	    -14.67767648	    -37.49238929	     -4.78920965	      1.04699693	     -0.00000000	     -0.00000000	     -0.08358748	     -8.50940450	     16.93358021	      0.00000000	    -14.89727358	     -3.70040533	     -2.07274750
